<svg xmlns="http://www.w3.org/2000/svg" width="1200" height="800" viewBox="0 0 1200 800"><rect width="100%" height="100%" fill="#DDDDDD"/><path fill="#999999" d="M337.345 366.365h22.42l-46.8 117.99h-25.76l-46.81-117.99h23.46q3.22 0 5.35 1.49 2.13 1.5 2.82 3.8l22.77 63.02q1.83 5.52 3.21 10.81 1.38 5.29 2.42 10.58 1.15-5.29 2.53-10.58t3.34-10.81l23.23-63.02q.8-2.3 2.87-3.8 2.07-1.49 4.95-1.49Zm38.4 0h28.53v117.99h-28.53v-117.99Zm32.43-34.39q0 3.69-1.49 6.91-1.5 3.22-3.97 5.63-2.47 2.41-5.8 3.85-3.34 1.44-7.14 1.44-3.67 0-6.95-1.44-3.28-1.44-5.69-3.85-2.42-2.41-3.86-5.63-1.44-3.22-1.44-6.91 0-3.79 1.44-7.12 1.44-3.34 3.86-5.75 2.41-2.42 5.69-3.86 3.28-1.44 6.95-1.44 3.8 0 7.14 1.44 3.33 1.44 5.8 3.86 2.47 2.41 3.97 5.75 1.49 3.33 1.49 7.12Zm50.15 41.52 1.72 13.34q5.52-10.58 13.11-16.62 7.59-6.04 17.94-6.04 8.17 0 13.11 3.57l-1.84 21.27q-.57 2.07-1.67 2.94-1.09.86-2.93.86-1.72 0-5.12-.58-3.39-.57-6.61-.57-4.71 0-8.39 1.38-3.68 1.38-6.62 3.97-2.93 2.58-5.17 6.26-2.24 3.68-4.2 8.4v72.68h-28.4v-117.99h16.67q4.37 0 6.1 1.55 1.72 1.55 2.3 5.58Zm133.97-7.13h28.41v117.99h-17.37q-5.63 0-7.13-5.17l-1.95-9.44q-7.25 7.36-15.99 11.91-8.74 4.54-20.58 4.54-9.66 0-17.08-3.28-7.42-3.27-12.48-9.26-5.06-5.98-7.65-14.2-2.58-8.22-2.58-18.11v-74.98h28.4v74.98q0 10.81 5 16.73 5.01 5.92 15.01 5.92 7.36 0 13.8-3.27 6.44-3.28 12.19-9.03v-85.33Zm148.47 14.6-7.48 10.35q-1.26 1.62-2.47 2.53-1.21.92-3.51.92-2.18 0-4.25-1.32t-4.95-2.99q-2.87-1.66-6.84-2.99-3.97-1.32-9.83-1.32-7.48 0-13.11 2.7-5.64 2.7-9.38 7.76-3.73 5.06-5.57 12.25-1.84 7.19-1.84 16.27 0 9.43 2.01 16.79 2.01 7.36 5.81 12.37 3.79 5 9.2 7.59 5.4 2.59 12.19 2.59 6.78 0 10.98-1.67t7.07-3.68q2.88-2.02 5-3.68 2.13-1.67 4.78-1.67 3.45 0 5.17 2.64l8.17 10.35q-4.72 5.52-10.24 9.26-5.52 3.74-11.44 5.98t-12.19 3.17q-6.27.92-12.48.92-10.92 0-20.58-4.09-9.66-4.08-16.91-11.9-7.24-7.82-11.44-19.15-4.2-11.32-4.2-25.82 0-12.99 3.74-24.09t10.98-19.2q7.25-8.11 17.94-12.71 10.7-4.6 24.61-4.6 13.23 0 23.17 4.25 9.95 4.26 17.89 12.19Zm92.11-14.6h28.41v117.99h-17.37q-5.63 0-7.13-5.17l-1.95-9.44q-7.25 7.36-15.99 11.91-8.74 4.54-20.58 4.54-9.66 0-17.08-3.28-7.42-3.27-12.48-9.26-5.06-5.98-7.65-14.2-2.58-8.22-2.58-18.11v-74.98h28.4v74.98q0 10.81 5 16.73 5.01 5.92 15.01 5.92 7.36 0 13.8-3.27 6.44-3.28 12.19-9.03v-85.33Zm95.8 119.83q-15.41 0-23.64-8.68-8.22-8.69-8.22-23.98v-65.9h-12.07q-2.3 0-3.91-1.49-1.61-1.49-1.61-4.49v-11.27l18.97-3.1 5.98-32.2q.58-2.3 2.19-3.57 1.61-1.26 4.14-1.26h14.72v37.15h31.51v20.23h-31.51v63.95q0 5.51 2.7 8.62 2.7 3.1 7.42 3.1 2.64 0 4.42-.63 1.79-.63 3.11-1.32 1.32-.69 2.36-1.32 1.03-.64 2.07-.64 1.26 0 2.07.64.8.63 1.72 1.89l8.51 13.8q-6.21 5.18-14.26 7.82-8.05 2.65-16.67 2.65Z"/></svg>